<?xml version="1.0" encoding="UTF-8" standalone="no"?>
<svg
   xmlns:dc="http://purl.org/dc/elements/1.1/"
   xmlns:cc="http://creativecommons.org/ns#"
   xmlns:rdf="http://www.w3.org/1999/02/22-rdf-syntax-ns#"
   xmlns:svg="http://www.w3.org/2000/svg"
   xmlns="http://www.w3.org/2000/svg"
   xmlns:sodipodi="http://sodipodi.sourceforge.net/DTD/sodipodi-0.dtd"
   xmlns:inkscape="http://www.inkscape.org/namespaces/inkscape"
   version="1.1"
   width="360"
   height="185"
   id="svg4010"
   inkscape:version="0.91 r13725"
   sodipodi:docname="logo_icon.svg">
  <metadata
     id="metadata4644">
    <rdf:RDF>
      <cc:Work
         rdf:about="">
        <dc:format>image/svg+xml</dc:format>
        <dc:type
           rdf:resource="http://purl.org/dc/dcmitype/StillImage" />
        <dc:title></dc:title>
      </cc:Work>
    </rdf:RDF>
  </metadata>
  <defs
     id="defs4642" />
  <sodipodi:namedview
     pagecolor="#ffffff"
     bordercolor="#666666"
     borderopacity="1"
     objecttolerance="10"
     gridtolerance="10"
     guidetolerance="10"
     inkscape:pageopacity="0"
     inkscape:pageshadow="2"
     inkscape:window-width="1600"
     inkscape:window-height="881"
     id="namedview4640"
     showgrid="false"
     inkscape:zoom="1.8891892"
     inkscape:cx="187.4564"
     inkscape:cy="147.25846"
     inkscape:window-x="0"
     inkscape:window-y="0"
     inkscape:window-maximized="1"
     inkscape:current-layer="svg4010" />
  <!-- Created with the Wikimedia parliament diagram creator (http://tools.wmflabs.org/parliamentdiagram/parliamentinputform.html) -->
  <g
     id="Party1"
     style="fill:#ad1fff">
    <circle
       id="circle4017"
       r="4.4400001"
       cy="175.56"
       cx="10.61" />
    <circle
       id="circle4019"
       r="4.4400001"
       cy="175.56"
       cx="21.73" />
    <circle
       id="circle4021"
       r="4.4400001"
       cy="175.56"
       cx="32.84" />
    <circle
       id="circle4023"
       r="4.4400001"
       cy="175.56"
       cx="43.959999" />
    <circle
       id="circle4025"
       r="4.4400001"
       cy="175.56"
       cx="55.080002" />
    <circle
       id="circle4027"
       r="4.4400001"
       cy="175.56"
       cx="66.199997" />
    <circle
       id="circle4029"
       r="4.4400001"
       cy="175.56"
       cx="77.32" />
    <circle
       id="circle4031"
       r="4.4400001"
       cy="175.56"
       cx="88.440002" />
    <circle
       id="circle4033"
       r="4.4400001"
       cy="175.56"
       cx="99.57" />
    <circle
       id="circle4035"
       r="4.4400001"
       cy="164.2"
       cx="11.29" />
    <circle
       id="circle4037"
       r="4.4400001"
       cy="164.22"
       cx="22.450001" />
    <circle
       id="circle4039"
       r="4.4400001"
       cy="164.25"
       cx="33.619999" />
    <circle
       id="circle4041"
       r="4.4400001"
       cy="164.27"
       cx="44.799999" />
    <circle
       id="circle4043"
       r="4.4400001"
       cy="163.97"
       cx="56.029999" />
    <circle
       id="circle4045"
       r="4.4400001"
       cy="163.98"
       cx="67.239998" />
    <circle
       id="circle4047"
       r="4.4400001"
       cy="163.99001"
       cx="78.480003" />
    <circle
       id="circle4049"
       r="4.4400001"
       cy="152.91"
       cx="12.73" />
    <circle
       id="circle4051"
       r="4.4400001"
       cy="152.97"
       cx="23.99" />
    <circle
       id="circle4053"
       r="4.4400001"
       cy="164.00999"
       cx="89.739998" />
    <circle
       id="circle4055"
       r="4.4400001"
       cy="153.03"
       cx="35.27" />
    <circle
       id="circle4057"
       r="4.4400001"
       cy="153.10001"
       cx="46.57" />
    <circle
       id="circle4059"
       r="4.4400001"
       cy="164.03999"
       cx="101.04" />
    <circle
       id="circle4061"
       r="4.4400001"
       cy="152.52"
       cx="58.060001" />
    <circle
       id="circle4063"
       r="4.4400001"
       cy="141.75"
       cx="14.93" />
    <circle
       id="circle4065"
       r="4.4400001"
       cy="152.57001"
       cx="69.459999" />
    <circle
       id="circle4067"
       r="4.4400001"
       cy="141.85001"
       cx="26.33" />
    <circle
       id="circle4069"
       r="4.4400001"
       cy="141.97"
       cx="37.77" />
    <circle
       id="circle4071"
       r="4.4400001"
       cy="152.63"
       cx="80.93" />
    <circle
       id="circle4073"
       r="4.4400001"
       cy="142.11"
       cx="49.27" />
    <circle
       id="circle4075"
       r="4.4400001"
       cy="130.75999"
       cx="17.870001" />
    <circle
       id="circle4077"
       r="4.4400001"
       cy="152.72"
       cx="92.489998" />
    <circle
       id="circle4079"
       r="4.4400001"
       cy="141.31"
       cx="61.139999" />
    <circle
       id="circle4081"
       r="4.4400001"
       cy="130.92999"
       cx="29.459999" />
    <circle
       id="circle4083"
       r="4.4400001"
       cy="131.14"
       cx="41.119999" />
    <circle
       id="circle4085"
       r="4.4400001"
       cy="152.84"
       cx="104.16" />
    <circle
       id="circle4087"
       r="4.4400001"
       cy="141.44"
       cx="72.839996" />
    <circle
       id="circle4089"
       r="4.4400001"
       cy="119.99"
       cx="21.540001" />
    <circle
       id="circle4091"
       r="4.4400001"
       cy="131.39"
       cx="52.869999" />
    <circle
       id="circle4093"
       r="4.4400001"
       cy="141.62"
       cx="84.660004" />
    <circle
       id="circle4095"
       r="4.4400001"
       cy="120.27"
       cx="33.369999" />
    <circle
       id="circle4097"
       r="4.4400001"
       cy="130.42999"
       cx="65.25" />
    <circle
       id="circle4099"
       r="4.4400001"
       cy="120.6"
       cx="45.290001" />
    <circle
       id="circle4101"
       r="4.4400001"
       cy="141.87"
       cx="96.639999" />
    <circle
       id="circle4103"
       r="4.4400001"
       cy="109.49"
       cx="25.92" />
    <circle
       id="circle4105"
       r="4.4400001"
       cy="130.72"
       cx="77.330002" />
    <circle
       id="circle4107"
       r="4.4400001"
       cy="121"
       cx="57.34" />
    <circle
       id="circle4109"
       r="4.4400001"
       cy="109.91"
       cx="38.029999" />
    <circle
       id="circle4111"
       r="4.4400001"
       cy="142.22"
       cx="108.85" />
    <circle
       id="circle4113"
       r="4.4400001"
       cy="110.41"
       cx="50.27" />
    <circle
       id="circle4115"
       r="4.4400001"
       cy="131.10001"
       cx="89.599998" />
    <circle
       id="circle4117"
       r="4.4400001"
       cy="99.309998"
       cx="31" />
    <circle
       id="circle4119"
       r="4.4400001"
       cy="119.99"
       cx="70.349998" />
    <circle
       id="circle4121"
       r="4.4400001"
       cy="99.910004"
       cx="43.419998" />
    <circle
       id="circle4123"
       r="4.4400001"
       cy="111.01"
       cx="62.669998" />
    <circle
       id="circle4125"
       r="4.4400001"
       cy="120.51"
       cx="82.879997" />
    <circle
       id="circle4127"
       r="4.4400001"
       cy="131.63"
       cx="102.14" />
    <circle
       id="circle4129"
       r="4.4400001"
       cy="89.5"
       cx="36.75" />
    <circle
       id="circle4131"
       r="4.4400001"
       cy="100.63"
       cx="56.009998" />
    <circle
       id="circle4133"
       r="4.4400001"
       cy="110.06"
       cx="76.400002" />
    <circle
       id="circle4135"
       r="4.4400001"
       cy="90.32"
       cx="49.509998" />
    <circle
       id="circle4137"
       r="4.4400001"
       cy="121.21"
       cx="95.699997" />
    <circle
       id="circle4139"
       r="4.4400001"
       cy="101.51"
       cx="68.800003" />
    <circle
       id="circle4141"
       r="4.4400001"
       cy="80.089996"
       cx="43.150002" />
    <circle
       id="circle4143"
       r="4.4400001"
       cy="132.38"
       cx="115.03" />
    <circle
       id="circle4145"
       r="4.4400001"
       cy="91.32"
       cx="62.48" />
    <circle
       id="circle4147"
       r="4.4400001"
       cy="110.92"
       cx="89.449997" />
    <circle
       id="circle4149"
       r="4.4400001"
       cy="81.199997"
       cx="56.279999" />
    <circle
       id="circle4151"
       r="4.4400001"
       cy="122.16"
       cx="108.88" />
    <circle
       id="circle4153"
       r="4.4400001"
       cy="100.74"
       cx="83.349998" />
    <circle
       id="circle4155"
       r="4.4400001"
       cy="71.129997"
       cx="50.16" />
    <circle
       id="circle4157"
       r="4.4400001"
       cy="92.540001"
       cx="75.699997" />
    <circle
       id="circle4159"
       r="4.4400001"
       cy="112.06"
       cx="102.88" />
    <circle
       id="circle4161"
       r="4.4400001"
       cy="82.540001"
       cx="69.650002" />
    <circle
       id="circle4163"
       r="4.4400001"
       cy="72.580002"
       cx="63.68" />
    <circle
       id="circle4165"
       r="4.4400001"
       cy="102.05"
       cx="96.970001" />
    <circle
       id="circle4167"
       r="4.4400001"
       cy="62.66"
       cx="57.759998" />
    <circle
       id="circle4169"
       r="4.4400001"
       cy="123.53"
       cx="122.56" />
    <circle
       id="circle4171"
       r="4.4400001"
       cy="92.099998"
       cx="91.129997" />
    <circle
       id="circle4173"
       r="4.4400001"
       cy="84.190002"
       cx="83.330002" />
    <circle
       id="circle4175"
       r="4.4400001"
       cy="74.339996"
       cx="77.480003" />
    <circle
       id="circle4177"
       r="4.4400001"
       cy="113.63"
       cx="116.77" />
    <circle
       id="circle4179"
       r="4.4400001"
       cy="64.519997"
       cx="71.68" />
    <circle
       id="circle4181"
       r="4.4400001"
       cy="54.720001"
       cx="65.910004" />
    <circle
       id="circle4183"
       r="4.4400001"
       cy="103.79"
       cx="111.04" />
    <circle
       id="circle4185"
       r="4.4400001"
       cy="93.989998"
       cx="105.35" />
    <circle
       id="circle4187"
       r="4.4400001"
       cy="76.489998"
       cx="91.620003" />
    <circle
       id="circle4189"
       r="4.4400001"
       cy="84.220001"
       cx="99.68" />
    <circle
       id="circle4191"
       r="4.4400001"
       cy="66.760002"
       cx="85.919998" />
    <circle
       id="circle4193"
       r="4.4400001"
       cy="57.049999"
       cx="80.239998" />
    <circle
       id="circle4195"
       r="4.4400001"
       cy="47.349998"
       cx="74.57" />
    <circle
       id="circle4197"
       r="4.4400001"
       cy="115.85"
       cx="131.28" />
    <circle
       id="circle4199"
       r="4.4400001"
       cy="106.16"
       cx="125.68" />
    <circle
       id="circle4201"
       r="4.4400001"
       cy="69.510002"
       cx="100.52" />
    <circle
       id="circle4203"
       r="4.4400001"
       cy="96.489998"
       cx="120.09" />
    <circle
       id="circle4205"
       r="4.4400001"
       cy="59.860001"
       cx="94.910004" />
    <circle
       id="circle4207"
       r="4.4400001"
       cy="86.830002"
       cx="114.5" />
    <circle
       id="circle4209"
       r="4.4400001"
       cy="50.209999"
       cx="89.309998" />
    <circle
       id="circle4211"
       r="4.4400001"
       cy="77.169998"
       cx="108.93" />
    <circle
       id="circle4213"
       r="4.4400001"
       cy="40.57"
       cx="83.709999" />
    <circle
       id="circle4215"
       r="4.4400001"
       cy="63.290001"
       cx="109.97" />
    <circle
       id="circle4217"
       r="4.4400001"
       cy="53.669998"
       cx="104.41" />
    <circle
       id="circle4219"
       r="4.4400001"
       cy="44.049999"
       cx="98.839996" />
    <circle
       id="circle4221"
       r="4.4400001"
       cy="34.43"
       cx="93.279999" />
    <circle
       id="circle4223"
       r="4.4400001"
       cy="71.010002"
       cx="118.79" />
    <circle
       id="circle4225"
       r="4.4400001"
       cy="80.639999"
       cx="124.34" />
    <circle
       id="circle4227"
       r="4.4400001"
       cy="90.260002"
       cx="129.89999" />
    <circle
       id="circle4229"
       r="4.4400001"
       cy="99.879997"
       cx="135.46001" />
    <circle
       id="circle4231"
       r="4.4400001"
       cy="109.51"
       cx="141.00999" />
    <circle
       id="circle4233"
       r="4.4400001"
       cy="28.940001"
       cx="103.25" />
    <circle
       id="circle4235"
       r="4.4400001"
       cy="38.580002"
       cx="108.8" />
  </g>
  <g
     id="Party2"
     style="fill:#fa0000">
    <circle
       id="circle4238"
       r="4.4400001"
       cy="48.220001"
       cx="114.35" />
    <circle
       id="circle4240"
       r="4.4400001"
       cy="57.869999"
       cx="119.9" />
    <circle
       id="circle4242"
       r="4.4400001"
       cy="65.800003"
       cx="129.17999" />
    <circle
       id="circle4244"
       r="4.4400001"
       cy="75.480003"
       cx="134.75999" />
    <circle
       id="circle4246"
       r="4.4400001"
       cy="24.129999"
       cx="113.56" />
    <circle
       id="circle4248"
       r="4.4400001"
       cy="85.18"
       cx="140.35001" />
    <circle
       id="circle4250"
       r="4.4400001"
       cy="33.84"
       cx="119.12" />
    <circle
       id="circle4252"
       r="4.4400001"
       cy="43.560001"
       cx="124.69" />
    <circle
       id="circle4254"
       r="4.4400001"
       cy="94.889999"
       cx="145.95" />
    <circle
       id="circle4256"
       r="4.4400001"
       cy="53.299999"
       cx="130.25" />
    <circle
       id="circle4258"
       r="4.4400001"
       cy="104.63"
       cx="151.56" />
    <circle
       id="circle4260"
       r="4.4400001"
       cy="20.02"
       cx="124.17" />
    <circle
       id="circle4262"
       r="4.4400001"
       cy="61.57"
       cx="140.00999" />
    <circle
       id="circle4264"
       r="4.4400001"
       cy="29.85"
       cx="129.75999" />
    <circle
       id="circle4266"
       r="4.4400001"
       cy="39.709999"
       cx="135.35001" />
    <circle
       id="circle4268"
       r="4.4400001"
       cy="71.410004"
       cx="145.64999" />
    <circle
       id="circle4270"
       r="4.4400001"
       cy="49.610001"
       cx="140.95" />
    <circle
       id="circle4272"
       r="4.4400001"
       cy="81.309998"
       cx="151.31" />
    <circle
       id="circle4274"
       r="4.4400001"
       cy="16.629999"
       cx="135.03" />
    <circle
       id="circle4276"
       r="4.4400001"
       cy="91.269997"
       cx="156.99001" />
    <circle
       id="circle4278"
       r="4.4400001"
       cy="26.629999"
       cx="140.64999" />
    <circle
       id="circle4280"
       r="4.4400001"
       cy="58.369999"
       cx="151.17999" />
    <circle
       id="circle4282"
       r="4.4400001"
       cy="36.689999"
       cx="146.28" />
    <circle
       id="circle4284"
       r="4.4400001"
       cy="101.33"
       cx="162.69" />
    <circle
       id="circle4286"
       r="4.4400001"
       cy="46.82"
       cx="151.91" />
    <circle
       id="circle4288"
       r="4.4400001"
       cy="68.480003"
       cx="156.89999" />
    <circle
       id="circle4290"
       r="4.4400001"
       cy="13.98"
       cx="146.09" />
    <circle
       id="circle4292"
       r="4.4400001"
       cy="24.209999"
       cx="151.75" />
    <circle
       id="circle4294"
       r="4.4400001"
       cy="78.699997"
       cx="162.64" />
    <circle
       id="circle4296"
       r="4.4400001"
       cy="34.52"
       cx="157.41" />
    <circle
       id="circle4298"
       r="4.4400001"
       cy="56.220001"
       cx="162.61" />
    <circle
       id="circle4300"
       r="4.4400001"
       cy="12.08"
       cx="157.31" />
    <circle
       id="circle4302"
       r="4.4400001"
       cy="89.07"
       cx="168.39999" />
    <circle
       id="circle4304"
       r="4.4400001"
       cy="44.950001"
       cx="163.07001" />
    <circle
       id="circle4306"
       r="4.4400001"
       cy="22.58"
       cx="162.99001" />
    <circle
       id="circle4308"
       r="4.4400001"
       cy="66.699997"
       cx="168.39" />
    <circle
       id="circle4310"
       r="4.4400001"
       cy="33.209999"
       cx="168.67" />
    <circle
       id="circle4312"
       r="4.4400001"
       cy="99.650002"
       cx="174.19" />
    <circle
       id="circle4314"
       r="4.4400001"
       cy="10.94"
       cx="168.63" />
    <circle
       id="circle4316"
       r="4.4400001"
       cy="77.389999"
       cx="174.19" />
  </g>
  <g
     id="Party3"
     style="fill:#17068b">
    <circle
       id="circle4319"
       r="4.4400001"
       cy="55.139999"
       cx="174.19" />
    <circle
       id="circle4321"
       r="4.4400001"
       cy="44.009998"
       cx="174.34" />
    <circle
       id="circle4323"
       r="4.4400001"
       cy="21.77"
       cx="174.32001" />
    <circle
       id="circle4325"
       r="4.4400001"
       cy="10.56"
       cx="180" />
    <circle
       id="circle4327"
       r="4.4400001"
       cy="32.779999"
       cx="180" />
    <circle
       id="circle4329"
       r="4.4400001"
       cy="66.110001"
       cx="180" />
    <circle
       id="circle4331"
       r="4.4400001"
       cy="88.330002"
       cx="180" />
    <circle
       id="circle4333"
       r="4.4400001"
       cy="21.77"
       cx="185.67999" />
    <circle
       id="circle4335"
       r="4.4400001"
       cy="44.009998"
       cx="185.66" />
    <circle
       id="circle4337"
       r="4.4400001"
       cy="55.139999"
       cx="185.81" />
    <circle
       id="circle4339"
       r="4.4400001"
       cy="77.389999"
       cx="185.81" />
    <circle
       id="circle4341"
       r="4.4400001"
       cy="10.94"
       cx="191.37" />
    <circle
       id="circle4343"
       r="4.4400001"
       cy="99.650002"
       cx="185.81" />
    <circle
       id="circle4345"
       r="4.4400001"
       cy="33.209999"
       cx="191.33" />
    <circle
       id="circle4347"
       r="4.4400001"
       cy="66.699997"
       cx="191.61" />
    <circle
       id="circle4349"
       r="4.4400001"
       cy="22.58"
       cx="197.00999" />
    <circle
       id="circle4351"
       r="4.4400001"
       cy="44.950001"
       cx="196.92999" />
    <circle
       id="circle4353"
       r="4.4400001"
       cy="89.07"
       cx="191.60001" />
    <circle
       id="circle4355"
       r="4.4400001"
       cy="12.08"
       cx="202.69" />
    <circle
       id="circle4357"
       r="4.4400001"
       cy="56.220001"
       cx="197.39" />
    <circle
       id="circle4359"
       r="4.4400001"
       cy="34.52"
       cx="202.59" />
    <circle
       id="circle4361"
       r="4.4400001"
       cy="78.699997"
       cx="197.36" />
    <circle
       id="circle4363"
       r="4.4400001"
       cy="24.209999"
       cx="208.25" />
    <circle
       id="circle4365"
       r="4.4400001"
       cy="13.98"
       cx="213.91" />
    <circle
       id="circle4367"
       r="4.4400001"
       cy="68.480003"
       cx="203.10001" />
    <circle
       id="circle4369"
       r="4.4400001"
       cy="46.82"
       cx="208.09" />
    <circle
       id="circle4371"
       r="4.4400001"
       cy="101.33"
       cx="197.31" />
    <circle
       id="circle4373"
       r="4.4400001"
       cy="36.689999"
       cx="213.72" />
    <circle
       id="circle4375"
       r="4.4400001"
       cy="58.369999"
       cx="208.82001" />
    <circle
       id="circle4377"
       r="4.4400001"
       cy="26.629999"
       cx="219.35001" />
    <circle
       id="circle4379"
       r="4.4400001"
       cy="91.269997"
       cx="203.00999" />
    <circle
       id="circle4381"
       r="4.4400001"
       cy="16.629999"
       cx="224.97" />
    <circle
       id="circle4383"
       r="4.4400001"
       cy="81.309998"
       cx="208.69" />
    <circle
       id="circle4385"
       r="4.4400001"
       cy="49.610001"
       cx="219.05" />
    <circle
       id="circle4387"
       r="4.4400001"
       cy="71.410004"
       cx="214.35001" />
    <circle
       id="circle4389"
       r="4.4400001"
       cy="39.709999"
       cx="224.64999" />
    <circle
       id="circle4391"
       r="4.4400001"
       cy="29.85"
       cx="230.24001" />
    <circle
       id="circle4393"
       r="4.4400001"
       cy="61.57"
       cx="219.99001" />
    <circle
       id="circle4395"
       r="4.4400001"
       cy="20.02"
       cx="235.83" />
    <circle
       id="circle4397"
       r="4.4400001"
       cy="104.63"
       cx="208.44" />
    <circle
       id="circle4399"
       r="4.4400001"
       cy="53.299999"
       cx="229.75" />
    <circle
       id="circle4401"
       r="4.4400001"
       cy="94.889999"
       cx="214.05" />
    <circle
       id="circle4403"
       r="4.4400001"
       cy="43.560001"
       cx="235.31" />
    <circle
       id="circle4405"
       r="4.4400001"
       cy="33.84"
       cx="240.88" />
    <circle
       id="circle4407"
       r="4.4400001"
       cy="85.18"
       cx="219.64999" />
    <circle
       id="circle4409"
       r="4.4400001"
       cy="24.129999"
       cx="246.44" />
    <circle
       id="circle4411"
       r="4.4400001"
       cy="75.480003"
       cx="225.24001" />
    <circle
       id="circle4413"
       r="4.4400001"
       cy="65.800003"
       cx="230.82001" />
    <circle
       id="circle4415"
       r="4.4400001"
       cy="57.869999"
       cx="240.10001" />
    <circle
       id="circle4417"
       r="4.4400001"
       cy="48.220001"
       cx="245.64999" />
    <circle
       id="circle4419"
       r="4.4400001"
       cy="38.580002"
       cx="251.2" />
    <circle
       id="circle4421"
       r="4.4400001"
       cy="28.940001"
       cx="256.75" />
    <circle
       id="circle4423"
       r="4.4400001"
       cy="109.51"
       cx="218.99001" />
    <circle
       id="circle4425"
       r="4.4400001"
       cy="99.879997"
       cx="224.53999" />
    <circle
       id="circle4427"
       r="4.4400001"
       cy="90.260002"
       cx="230.10001" />
    <circle
       id="circle4429"
       r="4.4400001"
       cy="80.639999"
       cx="235.66" />
    <circle
       id="circle4431"
       r="4.4400001"
       cy="71.010002"
       cx="241.21001" />
    <circle
       id="circle4433"
       r="4.4400001"
       cy="34.43"
       cx="266.72" />
    <circle
       id="circle4435"
       r="4.4400001"
       cy="44.049999"
       cx="261.16" />
    <circle
       id="circle4437"
       r="4.4400001"
       cy="53.669998"
       cx="255.59" />
    <circle
       id="circle4439"
       r="4.4400001"
       cy="63.290001"
       cx="250.03" />
    <circle
       id="circle4441"
       r="4.4400001"
       cy="40.57"
       cx="276.29001" />
    <circle
       id="circle4443"
       r="4.4400001"
       cy="77.169998"
       cx="251.07001" />
    <circle
       id="circle4445"
       r="4.4400001"
       cy="50.209999"
       cx="270.69" />
    <circle
       id="circle4447"
       r="4.4400001"
       cy="86.830002"
       cx="245.5" />
    <circle
       id="circle4449"
       r="4.4400001"
       cy="59.860001"
       cx="265.09" />
    <circle
       id="circle4451"
       r="4.4400001"
       cy="96.489998"
       cx="239.91" />
    <circle
       id="circle4453"
       r="4.4400001"
       cy="69.510002"
       cx="259.48001" />
    <circle
       id="circle4455"
       r="4.4400001"
       cy="106.16"
       cx="234.32001" />
    <circle
       id="circle4457"
       r="4.4400001"
       cy="115.85"
       cx="228.72" />
  </g>
  <g
     id="Party4"
     style="fill:#4de800">
    <circle
       id="circle4460"
       r="4.4400001"
       cy="47.349998"
       cx="285.42999" />
    <circle
       id="circle4462"
       r="4.4400001"
       cy="57.049999"
       cx="279.76001" />
    <circle
       id="circle4464"
       r="4.4400001"
       cy="66.760002"
       cx="274.07999" />
    <circle
       id="circle4466"
       r="4.4400001"
       cy="84.220001"
       cx="260.32001" />
    <circle
       id="circle4468"
       r="4.4400001"
       cy="76.489998"
       cx="268.38" />
    <circle
       id="circle4470"
       r="4.4400001"
       cy="93.989998"
       cx="254.64999" />
    <circle
       id="circle4472"
       r="4.4400001"
       cy="103.79"
       cx="248.96001" />
    <circle
       id="circle4474"
       r="4.4400001"
       cy="54.720001"
       cx="294.09" />
    <circle
       id="circle4476"
       r="4.4400001"
       cy="64.519997"
       cx="288.32001" />
    <circle
       id="circle4478"
       r="4.4400001"
       cy="113.63"
       cx="243.23" />
    <circle
       id="circle4480"
       r="4.4400001"
       cy="74.339996"
       cx="282.51999" />
    <circle
       id="circle4482"
       r="4.4400001"
       cy="84.190002"
       cx="276.67001" />
    <circle
       id="circle4484"
       r="4.4400001"
       cy="92.099998"
       cx="268.87" />
    <circle
       id="circle4486"
       r="4.4400001"
       cy="123.53"
       cx="237.44" />
    <circle
       id="circle4488"
       r="4.4400001"
       cy="62.66"
       cx="302.23999" />
    <circle
       id="circle4490"
       r="4.4400001"
       cy="102.05"
       cx="263.03" />
    <circle
       id="circle4492"
       r="4.4400001"
       cy="72.580002"
       cx="296.32001" />
    <circle
       id="circle4494"
       r="4.4400001"
       cy="82.540001"
       cx="290.35001" />
    <circle
       id="circle4496"
       r="4.4400001"
       cy="112.06"
       cx="257.12" />
    <circle
       id="circle4498"
       r="4.4400001"
       cy="92.540001"
       cx="284.29999" />
    <circle
       id="circle4500"
       r="4.4400001"
       cy="71.129997"
       cx="309.84" />
    <circle
       id="circle4502"
       r="4.4400001"
       cy="100.74"
       cx="276.64999" />
    <circle
       id="circle4504"
       r="4.4400001"
       cy="122.16"
       cx="251.12" />
    <circle
       id="circle4506"
       r="4.4400001"
       cy="81.199997"
       cx="303.72" />
    <circle
       id="circle4508"
       r="4.4400001"
       cy="110.92"
       cx="270.54999" />
    <circle
       id="circle4510"
       r="4.4400001"
       cy="91.32"
       cx="297.51999" />
    <circle
       id="circle4512"
       r="4.4400001"
       cy="132.38"
       cx="244.97" />
    <circle
       id="circle4514"
       r="4.4400001"
       cy="80.089996"
       cx="316.85001" />
    <circle
       id="circle4516"
       r="4.4400001"
       cy="101.51"
       cx="291.20001" />
    <circle
       id="circle4518"
       r="4.4400001"
       cy="121.21"
       cx="264.29999" />
    <circle
       id="circle4520"
       r="4.4400001"
       cy="90.32"
       cx="310.48999" />
    <circle
       id="circle4522"
       r="4.4400001"
       cy="110.06"
       cx="283.60001" />
    <circle
       id="circle4524"
       r="4.4400001"
       cy="100.63"
       cx="303.98999" />
    <circle
       id="circle4526"
       r="4.4400001"
       cy="89.5"
       cx="323.25" />
    <circle
       id="circle4528"
       r="4.4400001"
       cy="131.63"
       cx="257.85999" />
    <circle
       id="circle4530"
       r="4.4400001"
       cy="120.51"
       cx="277.12" />
    <circle
       id="circle4532"
       r="4.4400001"
       cy="111.01"
       cx="297.32999" />
    <circle
       id="circle4534"
       r="4.4400001"
       cy="99.910004"
       cx="316.57999" />
    <circle
       id="circle4536"
       r="4.4400001"
       cy="119.99"
       cx="289.64999" />
    <circle
       id="circle4538"
       r="4.4400001"
       cy="99.309998"
       cx="329" />
    <circle
       id="circle4540"
       r="4.4400001"
       cy="131.10001"
       cx="270.39999" />
    <circle
       id="circle4542"
       r="4.4400001"
       cy="110.41"
       cx="309.73001" />
    <circle
       id="circle4544"
       r="4.4400001"
       cy="142.22"
       cx="251.14999" />
    <circle
       id="circle4546"
       r="4.4400001"
       cy="109.91"
       cx="321.97" />
    <circle
       id="circle4548"
       r="4.4400001"
       cy="121"
       cx="302.66" />
    <circle
       id="circle4550"
       r="4.4400001"
       cy="130.72"
       cx="282.67001" />
    <circle
       id="circle4552"
       r="4.4400001"
       cy="109.49"
       cx="334.07999" />
    <circle
       id="circle4554"
       r="4.4400001"
       cy="141.87"
       cx="263.35999" />
    <circle
       id="circle4556"
       r="4.4400001"
       cy="120.6"
       cx="314.70999" />
    <circle
       id="circle4558"
       r="4.4400001"
       cy="130.42999"
       cx="294.75" />
    <circle
       id="circle4560"
       r="4.4400001"
       cy="120.27"
       cx="326.63" />
    <circle
       id="circle4562"
       r="4.4400001"
       cy="141.62"
       cx="275.34" />
    <circle
       id="circle4564"
       r="4.4400001"
       cy="131.39"
       cx="307.13" />
    <circle
       id="circle4566"
       r="4.4400001"
       cy="119.99"
       cx="338.45999" />
    <circle
       id="circle4568"
       r="4.4400001"
       cy="141.44"
       cx="287.16" />
    <circle
       id="circle4570"
       r="4.4400001"
       cy="152.84"
       cx="255.84" />
    <circle
       id="circle4572"
       r="4.4400001"
       cy="131.14"
       cx="318.88" />
    <circle
       id="circle4574"
       r="4.4400001"
       cy="130.92999"
       cx="330.54001" />
    <circle
       id="circle4576"
       r="4.4400001"
       cy="141.31"
       cx="298.85999" />
    <circle
       id="circle4578"
       r="4.4400001"
       cy="152.72"
       cx="267.51001" />
    <circle
       id="circle4580"
       r="4.4400001"
       cy="130.75999"
       cx="342.13" />
    <circle
       id="circle4582"
       r="4.4400001"
       cy="142.11"
       cx="310.73001" />
    <circle
       id="circle4584"
       r="4.4400001"
       cy="152.63"
       cx="279.07001" />
    <circle
       id="circle4586"
       r="4.4400001"
       cy="141.97"
       cx="322.23001" />
    <circle
       id="circle4588"
       r="4.4400001"
       cy="141.85001"
       cx="333.67001" />
    <circle
       id="circle4590"
       r="4.4400001"
       cy="152.57001"
       cx="290.54001" />
    <circle
       id="circle4592"
       r="4.4400001"
       cy="141.75"
       cx="345.07001" />
    <circle
       id="circle4594"
       r="4.4400001"
       cy="152.52"
       cx="301.94" />
    <circle
       id="circle4596"
       r="4.4400001"
       cy="164.03999"
       cx="258.95999" />
    <circle
       id="circle4598"
       r="4.4400001"
       cy="153.10001"
       cx="313.42999" />
    <circle
       id="circle4600"
       r="4.4400001"
       cy="153.03"
       cx="324.73001" />
    <circle
       id="circle4602"
       r="4.4400001"
       cy="164.00999"
       cx="270.26001" />
    <circle
       id="circle4604"
       r="4.4400001"
       cy="152.97"
       cx="336.01001" />
    <circle
       id="circle4606"
       r="4.4400001"
       cy="152.91"
       cx="347.26999" />
    <circle
       id="circle4608"
       r="4.4400001"
       cy="163.99001"
       cx="281.51999" />
    <circle
       id="circle4610"
       r="4.4400001"
       cy="163.98"
       cx="292.76001" />
    <circle
       id="circle4612"
       r="4.4400001"
       cy="163.97"
       cx="303.97" />
    <circle
       id="circle4614"
       r="4.4400001"
       cy="164.27"
       cx="315.20001" />
    <circle
       id="circle4616"
       r="4.4400001"
       cy="164.25"
       cx="326.38" />
    <circle
       id="circle4618"
       r="4.4400001"
       cy="164.22"
       cx="337.54999" />
    <circle
       id="circle4620"
       r="4.4400001"
       cy="164.2"
       cx="348.70999" />
    <circle
       id="circle4622"
       r="4.4400001"
       cy="175.56"
       cx="260.42999" />
    <circle
       id="circle4624"
       r="4.4400001"
       cy="175.56"
       cx="271.56" />
    <circle
       id="circle4626"
       r="4.4400001"
       cy="175.56"
       cx="282.67999" />
    <circle
       id="circle4628"
       r="4.4400001"
       cy="175.56"
       cx="293.79999" />
    <circle
       id="circle4630"
       r="4.4400001"
       cy="175.56"
       cx="304.92001" />
    <circle
       id="circle4632"
       r="4.4400001"
       cy="175.56"
       cx="316.04001" />
    <circle
       id="circle4634"
       r="4.4400001"
       cy="175.56"
       cx="327.16" />
    <circle
       id="circle4636"
       r="4.4400001"
       cy="175.56"
       cx="338.26999" />
    <circle
       id="circle4638"
       r="4.4400001"
       cy="175.56"
       cx="349.39001" />
  </g>
</svg>
